<?xml version="1.0" standalone="no"?>
<!DOCTYPE svg PUBLIC "-//W3C//DTD SVG 20010904//EN"
 "http://www.w3.org/TR/2001/REC-SVG-20010904/DTD/svg10.dtd">
<svg version="1.0" xmlns="http://www.w3.org/2000/svg"
 width="400.000000pt" height="400.000000pt" viewBox="0 0 400.000000 400.000000"
 preserveAspectRatio="xMidYMid meet">
<metadata>
Created by potrace 1.11, written by Peter Selinger 2001-2013
</metadata>
<g transform="translate(0.000000,400.000000) scale(0.100000,-0.100000)"
fill="#000000" stroke="none">
<path d="M1920 3988 c0 -5 -6 -8 -12 -6 -16 3 -88 -40 -88 -53 0 -5 -7 -9 -15
-9 -8 0 -15 -4 -15 -9 0 -11 -120 -131 -131 -131 -5 0 -9 -4 -9 -8 0 -8 -154
-166 -176 -180 -31 -20 -12 -45 207 -263 224 -224 227 -227 260 -220 19 4 54
7 79 6 55 -1 170 -42 170 -61 0 -8 6 -14 14 -14 7 0 21 -11 29 -24 9 -13 22
-30 30 -37 36 -36 57 -156 42 -239 -6 -34 -2 -39 64 -104 39 -37 71 -72 71
-77 0 -5 5 -9 10 -9 13 0 80 -71 80 -84 0 -5 2 -7 5 -4 3 3 51 -41 107 -98 68
-68 106 -100 113 -94 6 5 20 9 30 10 11 0 34 2 50 2 83 5 189 -42 235 -104 32
-43 61 -88 55 -88 -2 0 2 -15 9 -32 15 -39 13 -136 -3 -166 -7 -12 -9 -22 -6
-22 4 0 -3 -14 -15 -30 -12 -17 -19 -30 -15 -30 3 0 -18 -22 -46 -50 -28 -27
-55 -47 -60 -44 -5 3 -9 0 -9 -7 0 -7 -3 -9 -7 -6 -3 4 -12 2 -19 -3 -49 -41
-222 -24 -285 28 -53 43 -99 97 -99 115 0 7 -4 17 -9 23 -20 20 -29 115 -17
175 l13 59 -115 115 c-63 63 -119 115 -125 115 -6 0 -8 3 -4 6 7 8 -17 34 -32
34 -5 0 -12 8 -15 18 -4 11 -18 25 -31 32 -14 7 -23 15 -20 18 5 5 -20 32 -31
32 -3 0 -14 9 -24 20 -16 18 -17 -11 -16 -527 1 -404 4 -547 13 -550 6 -2 20
-12 31 -21 11 -9 29 -23 41 -31 11 -8 18 -18 15 -23 -3 -4 -1 -8 4 -8 10 0 51
-79 58 -114 9 -39 10 -106 2 -106 -4 0 -5 -6 -2 -14 12 -32 -89 -196 -117
-188 -5 1 -9 -3 -9 -8 0 -8 -35 -29 -60 -35 -3 0 -14 -5 -25 -11 -45 -24 -245
7 -245 37 0 5 -7 9 -15 9 -8 0 -15 5 -15 10 0 6 -7 10 -15 10 -8 0 -15 4 -15
8 0 5 -8 17 -17 28 -27 30 -53 80 -46 88 3 3 2 6 -3 6 -15 0 -23 110 -12 170
6 34 42 99 70 130 28 30 83 70 98 70 12 0 11 -29 11 585 0 267 0 495 0 508 -1
14 -11 27 -28 35 -52 23 -142 120 -126 136 3 3 1 6 -5 6 -7 0 -11 3 -10 8 1 4
-3 24 -9 44 -6 20 -9 58 -7 85 3 26 5 56 5 66 0 9 4 17 10 17 5 0 9 4 9 10 0
16 -464 474 -468 462 -4 -12 -232 -241 -232 -233 0 3 -4 0 -9 -8 -12 -19 -151
-160 -151 -154 0 3 -9 -5 -19 -18 -35 -45 -160 -166 -166 -161 -3 3 -5 1 -5
-5 0 -12 -120 -133 -132 -133 -4 0 -8 -7 -8 -15 0 -8 -7 -15 -17 -15 -9 0 -14
-2 -11 -5 5 -5 -185 -198 -213 -216 -8 -5 -10 -9 -5 -9 5 0 -8 -13 -29 -30
-21 -16 -36 -30 -34 -30 3 0 -43 -49 -101 -108 -73 -75 -109 -120 -117 -146
-17 -54 -11 -164 11 -206 10 -19 69 -86 130 -148 61 -62 113 -117 114 -122 2
-6 11 -10 20 -10 8 0 13 -2 10 -5 -6 -7 81 -95 94 -95 5 0 8 -3 6 -7 -5 -10
120 -132 127 -125 3 3 5 -1 5 -10 0 -8 11 -21 25 -28 14 -7 25 -16 25 -20 0
-10 132 -140 142 -140 4 0 8 -4 8 -8 0 -11 391 -402 402 -402 4 0 8 -4 8 -9 0
-11 181 -191 192 -191 4 0 8 -4 8 -8 0 -13 139 -150 145 -144 3 3 5 -1 5 -10
0 -8 11 -21 25 -28 14 -7 25 -17 25 -21 0 -4 32 -38 71 -75 161 -156 179 -174
179 -183 0 -5 9 -13 20 -16 11 -3 20 -13 20 -21 0 -8 4 -13 9 -10 5 4 11 2 13
-4 1 -5 30 -19 62 -31 85 -29 169 -22 219 19 9 9 17 12 17 8 0 -4 408 401 908
901 864 864 908 911 925 962 29 90 19 167 -28 231 -36 49 -274 288 -280 282
-3 -3 -5 0 -5 6 0 14 -47 62 -54 54 -3 -3 -6 -1 -6 4 0 12 -320 334 -332 334
-4 0 -8 4 -8 8 0 11 -351 362 -362 362 -5 0 -8 3 -6 8 4 9 -180 190 -187 184
-3 -3 -5 0 -5 6 0 14 -47 62 -54 54 -3 -3 -6 -1 -6 4 0 12 -320 334 -332 334
-4 0 -8 6 -8 14 0 8 -4 16 -9 18 -6 2 -45 37 -88 79 -59 58 -90 80 -130 93
-52 17 -163 20 -163 4z"/>
</g>
</svg>
